<?xml version="1.0" encoding="UTF-8" standalone="no"?>
<svg
   xmlns:dc="http://purl.org/dc/elements/1.1/"
   xmlns:cc="http://creativecommons.org/ns#"
   xmlns:rdf="http://www.w3.org/1999/02/22-rdf-syntax-ns#"
   xmlns:svg="http://www.w3.org/2000/svg"
   xmlns="http://www.w3.org/2000/svg"
   xmlns:sodipodi="http://sodipodi.sourceforge.net/DTD/sodipodi-0.dtd"
   xmlns:inkscape="http://www.inkscape.org/namespaces/inkscape"
   width="100"
   height="50"
   version="1.1"
   id="svg5237"
   sodipodi:docname="XOR_ANSI.svg"
   inkscape:version="0.92.4 (5da689c313, 2019-01-14)">
  <metadata
     id="metadata5243">
    <rdf:RDF>
      <cc:Work
         rdf:about="">
        <dc:format>image/svg+xml</dc:format>
        <dc:type
           rdf:resource="http://purl.org/dc/dcmitype/StillImage" />
      </cc:Work>
    </rdf:RDF>
  </metadata>
  <defs
     id="defs5241" />
  <sodipodi:namedview
     pagecolor="#ffffff"
     bordercolor="#666666"
     borderopacity="1"
     objecttolerance="10"
     gridtolerance="10"
     guidetolerance="10"
     inkscape:pageopacity="0"
     inkscape:pageshadow="2"
     inkscape:window-width="1920"
     inkscape:window-height="1016"
     id="namedview5239"
     showgrid="true"
     inkscape:zoom="13.84"
     inkscape:cx="50"
     inkscape:cy="25"
     inkscape:window-x="0"
     inkscape:window-y="27"
     inkscape:window-maximized="1"
     inkscape:current-layer="svg5237">
    <inkscape:grid
       type="xygrid"
       id="grid5791" />
  </sodipodi:namedview>
  <rect
     style="fill:#ffffff;fill-opacity:1;fill-rule:nonzero;stroke:none;stroke-width:2;stroke-linecap:round;stroke-linejoin:round;stroke-miterlimit:4;stroke-dasharray:none;stroke-opacity:1"
     id="rect6412"
     width="100"
     height="50"
     x="0"
     y="0" />
  <path
     d="m 70,25 h 30 M 30.38572,15 H 0 M 31.3621,35 H 0"
     id="path5229"
     inkscape:connector-curvature="0"
     style="fill:none;stroke:#000000;stroke-width:2"
     sodipodi:nodetypes="cccccc" />
  <g
     fill-rule="evenodd"
     id="g5235">
    <path
       d="M24.25 42C22.65263 44.6444 22 45 22 45h-3.65625l2-2.4375S26 35.56245 26 25 20.34375 7.4375 20.34375 7.4375l-2-2.4375H22c.78125.9375 1.42188 1.65625 2.21875 3C26.09147 11.09981 29 17.02665 29 25c0 7.95065-2.8967 13.87942-4.75 17z"
       id="path5231" />
    <path
       d="M24.09375 5l2 2.4375S31.75 14.43755 31.75 25s-5.65625 17.5625-5.65625 17.5625l-2 2.4375H41.25c2.40808 0 7.6897.02451 13.625-2.40625s12.53654-7.34327 17.6875-16.875L71.25 25l1.3125-.71875C62.25939 5.21559 46.00657 5 41.25 5H24.09375zm5.875 3H41.25c4.68417 0 18.28685-.1302 27.96875 17C64.45196 33.42907 58.69747 37.68391 53.5 39.8125 48.13934 42.00792 43.65808 42 41.25 42H30c1.87359-3.10843 4.75-9.04935 4.75-17 0-7.97335-2.90853-13.90019-4.78125-17z"
       id="path5233" />
  </g>
  <path
     style="fill:none;stroke:#000000;stroke-width:2;stroke-linecap:butt;stroke-linejoin:miter;stroke-miterlimit:4;stroke-dasharray:none;stroke-opacity:1"
     d="M 1,50 V 35"
     id="path4530-3"
     inkscape:connector-curvature="0" />
  <path
     inkscape:connector-curvature="0"
     id="path5799"
     d="M 1,15 V 0"
     style="fill:none;stroke:#000000;stroke-width:2;stroke-linecap:butt;stroke-linejoin:miter;stroke-miterlimit:4;stroke-dasharray:none;stroke-opacity:1" />
</svg>
